<svg width="15" height="26" viewBox="0 0 15 26" fill="none" xmlns="http://www.w3.org/2000/svg">
<path d="M0.468177 13.7502H3.65V25.4007C3.65 25.6307 3.85956 25.8171 4.11818 25.8171H9.51307C9.7717 25.8171 9.98125 25.6307 9.98125 25.4007V13.8051H13.639C13.8769 13.8051 14.077 13.6463 14.1041 13.4362L14.6597 9.14707C14.6749 9.02906 14.6329 8.91089 14.5441 8.82236C14.4552 8.73375 14.3281 8.68303 14.1947 8.68303H9.98144V5.99439C9.98144 5.1839 10.4721 4.77291 11.4399 4.77291C11.5778 4.77291 14.1947 4.77291 14.1947 4.77291C14.4533 4.77291 14.6628 4.58644 14.6628 4.35651V0.419486C14.6628 0.189464 14.4533 0.00308139 14.1947 0.00308139H10.3982C10.3714 0.00191546 10.312 0 10.2243 0C9.5656 0 7.27594 0.115011 5.46728 1.59491C3.46329 3.23488 3.74186 5.19848 3.80843 5.53893V8.68295H0.468177C0.209556 8.68295 0 8.86933 0 9.09935V13.3337C0 13.5637 0.209556 13.7502 0.468177 13.7502Z" fill="white"/>
</svg>
