<svg width="93" height="87" viewBox="0 0 93 87" fill="none" xmlns="http://www.w3.org/2000/svg">
<path d="M58.1575 43.642L56.9617 45.2451L58.1575 43.642ZM34.2227 43.642L33.0269 42.0389L34.2227 43.642ZM36.6426 13.8347C36.6426 13.2824 37.0903 12.8347 37.6426 12.8347V8.83472C34.8811 8.83472 32.6426 11.0733 32.6426 13.8347H36.6426ZM36.6426 42.8189V13.8347H32.6426V42.8189H36.6426ZM28.9442 57.7851C28.9442 52.7435 31.4429 48.2106 35.4185 45.2451L33.0269 42.0389C28.1325 45.6897 24.9442 51.3687 24.9442 57.7851H28.9442ZM46.1901 73.843C36.5435 73.843 28.9442 66.5355 28.9442 57.7851H24.9442C24.9442 68.9809 34.5783 77.843 46.1901 77.843V73.843ZM63.4359 57.7851C63.4359 66.5355 55.8367 73.843 46.1901 73.843V77.843C57.8019 77.843 67.4359 68.9809 67.4359 57.7851H63.4359ZM56.9617 45.2451C60.9373 48.2106 63.4359 52.7435 63.4359 57.7851H67.4359C67.4359 51.3687 64.2477 45.6897 59.3533 42.0389L56.9617 45.2451ZM55.7376 13.8347V42.8189H59.7376V13.8347H55.7376ZM54.7376 12.8347C55.2899 12.8347 55.7376 13.2824 55.7376 13.8347H59.7376C59.7376 11.0733 57.499 8.83472 54.7376 8.83472V12.8347ZM37.6426 12.8347H54.7376V8.83472H37.6426V12.8347ZM59.3533 42.0389C59.5749 42.2042 59.7376 42.4836 59.7376 42.8189H55.7376C55.7376 43.8046 56.2187 44.691 56.9617 45.2451L59.3533 42.0389ZM32.6426 42.8189C32.6426 42.4836 32.8053 42.2042 33.0269 42.0389L35.4185 45.2451C36.1614 44.691 36.6426 43.8046 36.6426 42.8189H32.6426Z" fill="#FCFCFC"/>
<ellipse cx="46.1901" cy="57.7852" rx="7.69835" ry="7.22314" fill="#B50C09"/>
</svg>
