<svg width="91" height="91" viewBox="0 0 91 91" fill="none" xmlns="http://www.w3.org/2000/svg">
<path d="M53.0834 56.875L37.9167 72.0417L53.0834 87.2083" stroke="#E9E9E9" stroke-width="5" stroke-linecap="round"/>
<path d="M68.4858 32.2292C70.8154 36.2641 72.0417 40.841 72.0417 45.5C72.0417 50.1591 70.8154 54.736 68.4858 58.7709C66.1563 62.8057 62.8058 66.1563 58.7709 68.4858C54.7361 70.8153 50.1591 72.0417 45.5001 72.0417" stroke="#FCFCFC" stroke-width="5" stroke-linecap="round"/>
<path d="M37.9166 34.125L53.0833 18.9583L37.9166 3.79167" stroke="#E9E9E9" stroke-width="5" stroke-linecap="round"/>
<path d="M22.5142 58.7708C20.1846 54.7359 18.9583 50.159 18.9583 45.5C18.9583 40.8409 20.1846 36.264 22.5142 32.2291C24.8437 28.1943 28.1942 24.8437 32.2291 22.5142C36.2639 20.1847 40.8409 18.9583 45.4999 18.9583" stroke="#FCFCFC" stroke-width="5" stroke-linecap="round"/>
<rect width="91" height="91" stroke="black"/>
</svg>
