<svg width="104" height="81" viewBox="0 0 104 81" fill="none" xmlns="http://www.w3.org/2000/svg">
<path d="M27.5365 12.2812C24.8747 14.5787 21.1482 16.9308 21.1481 27.0505C21.1481 37.1701 27.5365 44.2813 30.7307 51.6659C37.5794 67.4991 24.3423 74.312 21.1481 76.2813" stroke="white" stroke-width="5" stroke-linecap="round"/>
<path d="M53.432 12.2812C50.7701 14.5787 47.0436 16.9308 47.0436 27.0505C47.0436 37.1701 53.432 44.2813 56.6262 51.6659C63.4749 67.4991 50.2378 74.312 47.0436 76.2813" stroke="white" stroke-width="5" stroke-linecap="round"/>
<path d="M79.5324 12.2812C76.8706 14.5787 73.1441 16.9308 73.144 27.0505C73.144 37.1701 79.5324 44.2813 82.7267 51.6659C89.5753 67.4991 76.3382 74.312 73.144 76.2813" stroke="white" stroke-width="5" stroke-linecap="round"/>
<path d="M2.99998 3.28113L101 78.2814" stroke="#DE3F3F" stroke-width="5" stroke-linecap="round"/>
</svg>
