<svg width="99" height="89" viewBox="0 0 99 89" fill="none" xmlns="http://www.w3.org/2000/svg">
<path d="M28.5073 25.4332L29.6377 27.083L28.5073 25.4332ZM28.2069 25.6141L29.137 27.3847L28.2069 25.6141ZM70.7114 25.5393L69.6918 27.2599L70.7114 25.5393ZM49.5 46.2083H24.75V50.2083H49.5V46.2083ZM82.625 46.2083H49.5V50.2083H82.625V46.2083ZM84.625 44.2083C84.625 45.3129 83.7296 46.2083 82.625 46.2083V50.2083C85.9387 50.2083 88.625 47.522 88.625 44.2083H84.625ZM84.625 29.9583V44.2083H88.625V29.9583H84.625ZM82.625 27.9583C83.7296 27.9583 84.625 28.8538 84.625 29.9583H88.625C88.625 26.6446 85.9387 23.9583 82.625 23.9583V27.9583ZM74.5087 27.9583H82.625V23.9583H74.5087V27.9583ZM69.7697 20.5279C66.0337 13.7049 58.3061 9.125 49.5 9.125V13.125C56.9453 13.125 63.2742 16.9938 66.2613 22.449L69.7697 20.5279ZM49.5 9.125C40.5862 9.125 32.7756 13.8183 29.0938 20.7815L32.6299 22.6512C35.5704 17.09 41.9621 13.125 49.5 13.125V9.125ZM24.75 23.9583C17.0165 23.9583 10.375 29.6396 10.375 37.0833H14.375C14.375 32.2387 18.8144 27.9583 24.75 27.9583V23.9583ZM10.375 37.0833C10.375 44.5271 17.0165 50.2083 24.75 50.2083V46.2083C18.8144 46.2083 14.375 41.9279 14.375 37.0833H10.375ZM29.0938 20.7815C28.4999 21.9047 28.0973 22.6643 27.7698 23.2015C27.4167 23.7808 27.3035 23.8336 27.3768 23.7833L29.6377 27.083C30.3216 26.6145 30.8043 25.9083 31.1852 25.2835C31.5917 24.6167 32.0611 23.727 32.6299 22.6512L29.0938 20.7815ZM24.75 27.9583C25.6515 27.9583 26.4441 27.9598 27.0895 27.9092C27.7455 27.8578 28.4576 27.7416 29.137 27.3847L27.2767 23.8436C27.3009 23.8309 27.2185 23.8868 26.7769 23.9214C26.3245 23.9569 25.7163 23.9583 24.75 23.9583V27.9583ZM27.3768 23.7833C27.3282 23.8166 27.3227 23.8194 27.3283 23.816C27.3339 23.8126 27.3289 23.8162 27.2767 23.8436L29.137 27.3847C29.3349 27.2807 29.4533 27.2094 29.6377 27.083L27.3768 23.7833ZM74.5087 23.9583C73.4427 23.9583 72.7724 23.9566 72.2757 23.9134C71.7931 23.8716 71.7072 23.8046 71.7309 23.8186L69.6918 27.2599C70.4228 27.693 71.2055 27.8356 71.9297 27.8985C72.6399 27.9601 73.5147 27.9583 74.5087 27.9583V23.9583ZM66.2613 22.449C66.9099 23.6336 67.4448 24.6127 67.9096 25.3408C68.345 26.023 68.9002 26.7909 69.6918 27.2599L71.7309 23.8186C71.8152 23.8686 71.6854 23.8217 71.2812 23.1885C70.9063 22.6012 70.4468 21.7645 69.7697 20.5279L66.2613 22.449Z" fill="white"/>
<path d="M49.5 70.4583V63.0416" stroke="white" stroke-width="5" stroke-linecap="round"/>
<path d="M70.125 74.1666V63.0416" stroke="white" stroke-width="5" stroke-linecap="round"/>
<path d="M28.875 77.875V63.0416" stroke="white" stroke-width="5" stroke-linecap="round"/>
</svg>
