<svg width="86" height="90" viewBox="0 0 86 90" fill="none" xmlns="http://www.w3.org/2000/svg">
<path d="M78.6628 29.8301L80.4673 28.0998L82.1265 29.8301L80.4673 31.5604L78.6628 29.8301ZM10.7268 32.3301C9.34605 32.3301 8.22677 31.2108 8.22677 29.8301C8.22677 28.4494 9.34605 27.3301 10.7268 27.3301L10.7268 32.3301ZM66.1649 13.1847L80.4673 28.0998L76.8584 31.5604L62.556 16.6454L66.1649 13.1847ZM80.4673 31.5604L66.1649 46.4755L62.556 43.0149L76.8584 28.0998L80.4673 31.5604ZM78.6628 32.3301L10.7268 32.3301L10.7268 27.3301L78.6628 27.3301L78.6628 32.3301Z" fill="white"/>
<path d="M7.15117 59.6603L5.34672 57.93L3.6875 59.6603L5.34672 61.3906L7.15117 59.6603ZM39.3314 62.1603C40.7121 62.1603 41.8314 61.041 41.8314 59.6603C41.8314 58.2796 40.7121 57.1603 39.3314 57.1603L39.3314 62.1603ZM19.649 43.0149L5.34672 57.93L8.95561 61.3906L23.2579 46.4756L19.649 43.0149ZM5.34672 61.3906L19.649 76.3057L23.2579 72.8451L8.95561 57.93L5.34672 61.3906ZM7.15117 62.1603L39.3314 62.1603L39.3314 57.1603L7.15117 57.1603L7.15117 62.1603Z" fill="white"/>
</svg>
