<svg width="158" height="120" viewBox="0 0 158 120" fill="none" xmlns="http://www.w3.org/2000/svg">
<path d="M48.3391 99.8895C48.3391 94.1818 51.3085 88.5183 56.9452 84.2192C62.5962 79.9092 70.3737 77.4171 78.5813 77.4171C86.789 77.4171 94.5665 79.9092 100.217 84.2192C105.854 88.5183 108.824 94.1818 108.824 99.8895" stroke="#B50C09" stroke-width="5"/>
<path d="M114.598 72.4199L127.695 62.4309" stroke="white" stroke-width="3" stroke-linecap="round"/>
<path d="M32.7422 99.8895H124.42" stroke="white" stroke-width="5" stroke-linecap="round"/>
<path d="M29.4678 62.4305L42.5647 72.4194" stroke="white" stroke-width="3" stroke-linecap="round"/>
<path d="M78.3381 62.4301L77.0457 64.5762L78.3049 65.3305L79.5811 64.5931L78.3381 62.4301ZM81.2127 29.7006C81.2285 28.32 80.122 27.1933 78.7414 27.1841C77.3607 27.1749 76.2286 28.2867 76.2128 29.6673L81.2127 29.7006ZM57.5334 52.888L77.0457 64.5762L79.6304 60.2839L60.1181 48.5957L57.5334 52.888ZM79.5811 64.5931L99.358 53.1664L96.8718 48.8404L77.095 60.267L79.5811 64.5931ZM80.838 62.4467L81.2127 29.7006L76.2128 29.6673L75.8381 62.4134L80.838 62.4467Z" fill="white"/>
</svg>
