<svg width="24" height="24" viewBox="0 0 24 24" fill="none" xmlns="http://www.w3.org/2000/svg">
<path d="M21.2702 0.670898H3.66484C2.14819 0.670898 0.853638 2.09571 0.853638 3.60789V21.2267C0.853638 22.7384 2.14819 23.8172 3.66484 23.8172H21.2702C22.7868 23.8172 24 22.7384 24 21.2267V3.60789C24 2.09571 22.7868 0.670898 21.2702 0.670898ZM20.7257 3.97742C21.1645 3.97742 21.5202 4.33324 21.5202 4.77208V7.31649C21.5202 7.75534 21.1645 8.11115 20.7257 8.11115H18.1812C17.7424 8.11115 17.3866 7.75534 17.3866 7.31649V4.77208C17.3866 4.33324 17.7424 3.97742 18.1812 3.97742H20.7257ZM12.4943 8.01323C14.9473 8.01323 16.9357 9.99756 16.9357 12.4442C16.9357 14.8912 14.9473 16.8755 12.4943 16.8755C10.0417 16.8755 8.05282 14.8912 8.05282 12.4442C8.05282 9.99756 10.0416 8.01323 12.4943 8.01323ZM21.5202 20.6357C21.5202 20.9912 21.1425 21.3376 20.7858 21.3376H4.20336C3.84689 21.3376 3.33344 20.9912 3.33344 20.6357V10.5908H5.71845C5.55608 11.4177 5.46846 11.8034 5.46846 12.4442C5.46846 16.3094 8.62005 19.4532 12.4942 19.4532C16.3688 19.4532 19.5204 16.3086 19.5204 12.4434C19.5204 11.8034 19.4328 11.4177 19.2712 10.5908H21.5202V20.6357Z" fill="white"/>
</svg>
