<svg width="256" height="94" viewBox="0 0 256 94" fill="none" xmlns="http://www.w3.org/2000/svg">
<path d="M45.8391 79.6705L45.2616 78.6365H43.4353L43.753 78.0547H44.9356L44.0763 76.5161L42.3245 79.6732H41.5537L43.7723 75.7357C43.811 75.664 43.858 75.6089 43.9105 75.5648C43.963 75.5234 44.0265 75.5013 44.1011 75.5013C44.1757 75.5013 44.2393 75.5234 44.289 75.5648C44.3415 75.6061 44.3857 75.664 44.4244 75.7357L46.6486 79.6732H45.8391V79.6705Z" fill="white"/>
<path d="M59.2424 79.6704C58.9744 79.6704 58.7257 79.618 58.4964 79.5105C58.267 79.403 58.0709 79.2568 57.9023 79.0693C57.7338 78.8818 57.6039 78.6612 57.51 78.4048C57.416 78.1484 57.3691 77.8726 57.3691 77.5721C57.3691 77.2715 57.416 76.9958 57.51 76.7476C57.6039 76.4995 57.7338 76.2871 57.9023 76.1107C58.0709 75.9342 58.2698 75.7991 58.4964 75.7026C58.7257 75.6061 58.9744 75.5592 59.2424 75.5592H61.334V76.2761H59.2424C59.0683 76.2761 58.9081 76.3092 58.7616 76.3754C58.6152 76.4416 58.4881 76.5326 58.3831 76.6484C58.2781 76.7642 58.1924 76.9048 58.1344 77.0675C58.0736 77.2302 58.0432 77.4094 58.0432 77.6052C58.0432 77.7982 58.0736 77.9774 58.1344 78.1429C58.1952 78.3083 58.2781 78.4517 58.3831 78.5702C58.4881 78.6888 58.6152 78.7826 58.7616 78.8515C58.9081 78.9204 59.0683 78.9535 59.2424 78.9535H61.334V79.6704H59.2424Z" fill="white"/>
<path d="M74.577 79.6704C74.309 79.6704 74.0604 79.618 73.831 79.5105C73.6017 79.403 73.4055 79.2568 73.237 79.0693C73.0684 78.8818 72.9386 78.6612 72.8447 78.4048C72.7507 78.1484 72.7037 77.8726 72.7037 77.5721C72.7037 77.2715 72.7507 76.9958 72.8447 76.7476C72.9386 76.4995 73.0684 76.2871 73.237 76.1107C73.4055 75.9342 73.6045 75.7991 73.831 75.7026C74.0604 75.6061 74.309 75.5592 74.577 75.5592H76.6686V76.2761H74.577C74.403 76.2761 74.2427 76.3092 74.0963 76.3754C73.9498 76.4416 73.8227 76.5326 73.7177 76.6484C73.6128 76.7642 73.5271 76.9048 73.4691 77.0675C73.4083 77.2302 73.3779 77.4094 73.3779 77.6052C73.3779 77.7982 73.4083 77.9774 73.4691 78.1429C73.5299 78.3083 73.6128 78.4517 73.7177 78.5702C73.8227 78.6888 73.9498 78.7826 74.0963 78.8515C74.2427 78.9204 74.403 78.9535 74.577 78.9535H76.6686V79.6704H74.577Z" fill="white"/>
<path d="M88.1461 79.6704V75.5592H91.5916V76.2761H88.8148V78.9508H91.5971V79.6677H88.1461V79.6704ZM89.3094 77.8809V77.277H91.4479V77.8809H89.3094Z" fill="white"/>
<path d="M103.108 79.6705V78.9536H106.001C106.18 78.9536 106.321 78.9039 106.418 78.8074C106.515 78.7081 106.564 78.5786 106.564 78.4159C106.564 78.2394 106.515 78.1071 106.418 78.0161C106.321 77.9278 106.18 77.8837 106.001 77.8837H104.227C104.047 77.8837 103.881 77.8534 103.735 77.7955C103.589 77.7376 103.464 77.6548 103.362 77.5528C103.26 77.448 103.182 77.3267 103.127 77.1833C103.072 77.04 103.044 76.8828 103.044 76.7146C103.044 76.5491 103.069 76.3947 103.122 76.2541C103.174 76.1135 103.249 75.9922 103.351 75.8901C103.453 75.7881 103.577 75.7081 103.724 75.6502C103.873 75.5923 104.042 75.562 104.232 75.562H107.004V76.2789H104.232C104.078 76.2789 103.956 76.323 103.87 76.4113C103.785 76.4995 103.743 76.6236 103.743 76.7808C103.743 76.9379 103.787 77.062 103.873 77.1475C103.959 77.233 104.078 77.2771 104.227 77.2771H105.995C106.387 77.2771 106.686 77.3764 106.89 77.5721C107.095 77.7679 107.194 78.0657 107.194 78.4655C107.194 78.6392 107.169 78.7991 107.12 78.9453C107.07 79.0914 106.995 79.2183 106.896 79.3258C106.796 79.4333 106.672 79.5161 106.523 79.5767C106.374 79.6374 106.197 79.6677 105.995 79.6677H103.108V79.6705Z" fill="white"/>
<path d="M120.473 79.6704C120.205 79.6704 119.957 79.618 119.727 79.5105C119.498 79.403 119.302 79.2568 119.133 79.0693C118.965 78.8818 118.835 78.6612 118.741 78.4048C118.647 78.1484 118.6 77.8726 118.6 77.5721C118.6 77.2715 118.647 76.9958 118.741 76.7476C118.835 76.4995 118.965 76.2871 119.133 76.1107C119.302 75.9342 119.501 75.7991 119.727 75.7026C119.957 75.6061 120.205 75.5592 120.473 75.5592H121.413C121.692 75.5592 121.949 75.6088 122.181 75.7053C122.413 75.8046 122.612 75.9397 122.778 76.1189C122.943 76.2954 123.073 76.5077 123.164 76.7559C123.256 77.0041 123.303 77.2743 123.303 77.5721C123.303 77.8699 123.256 78.1484 123.162 78.4048C123.068 78.6612 122.938 78.8818 122.769 79.0693C122.601 79.2568 122.402 79.403 122.172 79.5105C121.943 79.618 121.689 79.6704 121.413 79.6704H120.473ZM121.413 78.9508C121.59 78.9508 121.753 78.9177 121.902 78.8487C122.051 78.7798 122.178 78.6888 122.286 78.5675C122.394 78.4489 122.476 78.3055 122.537 78.1401C122.598 77.9747 122.628 77.7954 122.628 77.6024C122.628 77.4094 122.598 77.2329 122.537 77.0675C122.476 76.9048 122.394 76.7642 122.286 76.6456C122.178 76.5298 122.048 76.436 121.902 76.3726C121.753 76.3064 121.59 76.2734 121.413 76.2734H120.473C120.299 76.2734 120.139 76.3064 119.992 76.3726C119.846 76.4388 119.719 76.5298 119.614 76.6456C119.509 76.7614 119.423 76.902 119.365 77.0647C119.305 77.2274 119.274 77.4066 119.274 77.6024C119.274 77.7954 119.305 77.9747 119.365 78.1401C119.426 78.3055 119.509 78.4489 119.614 78.5675C119.719 78.6861 119.846 78.7798 119.992 78.8487C120.139 78.9177 120.299 78.9508 120.473 78.9508H121.413Z" fill="white"/>
<path d="M138.364 79.6704L137.386 78.5289H135.941V77.8947H137.549C137.792 77.8947 137.977 77.823 138.101 77.6824C138.226 77.5417 138.286 77.3377 138.286 77.0675C138.286 76.8 138.223 76.6015 138.093 76.4719C137.963 76.3423 137.783 76.2761 137.549 76.2761H135.446V79.6704H134.777V75.5592H137.549C137.767 75.5592 137.966 75.595 138.137 75.664C138.311 75.7329 138.458 75.8349 138.576 75.9645C138.698 76.0941 138.789 76.2513 138.853 76.436C138.916 76.6208 138.949 76.8276 138.949 77.0592C138.949 77.4011 138.88 77.6906 138.739 77.9223C138.599 78.1539 138.405 78.3221 138.154 78.4241L139.317 79.6732H138.364V79.6704Z" fill="white"/>
<path d="M150.64 79.6704V75.5592H151.314V79.6704H150.64Z" fill="white"/>
<path d="M162.988 79.6704V75.5592H163.662V79.6704H162.988Z" fill="white"/>
<path d="M191.817 79.6705L191.239 78.6365H189.413L189.731 78.0547H190.913L190.054 76.5161L188.302 79.6732H187.531L189.75 75.7357C189.789 75.664 189.836 75.6089 189.888 75.5648C189.941 75.5234 190.004 75.5013 190.079 75.5013C190.153 75.5013 190.217 75.5234 190.267 75.5648C190.319 75.6061 190.363 75.664 190.402 75.7357L192.626 79.6732H191.817V79.6705Z" fill="white"/>
<path d="M207.425 75.5565H208.082V77.8534C208.082 78.1705 208.044 78.4462 207.966 78.6806C207.889 78.915 207.768 79.1108 207.599 79.2652C207.433 79.4196 207.218 79.5354 206.955 79.6098C206.693 79.6843 206.372 79.7229 205.996 79.7229C205.623 79.7229 205.308 79.6843 205.043 79.6098C204.781 79.5354 204.565 79.4196 204.399 79.2652C204.234 79.1108 204.112 78.915 204.032 78.6806C203.955 78.4462 203.916 78.1677 203.916 77.8534V75.5565H204.612V77.8534C204.612 78.0602 204.637 78.2367 204.684 78.3856C204.731 78.5345 204.808 78.653 204.919 78.7468C205.027 78.8405 205.17 78.9095 205.353 78.9536C205.532 78.9977 205.756 79.0198 206.021 79.0198C206.287 79.0198 206.51 78.9977 206.69 78.9536C206.87 78.9095 207.016 78.8405 207.124 78.7468C207.231 78.653 207.309 78.5317 207.359 78.3856C207.408 78.2394 207.43 78.0602 207.43 77.8534V75.5565H207.425Z" fill="white"/>
<path d="M220.864 79.6704V76.2761H219.4V75.5592H223.005V76.2761H221.541V79.6704H220.864Z" fill="white"/>
<path d="M236.144 79.6704C235.876 79.6704 235.627 79.618 235.398 79.5105C235.168 79.403 234.972 79.2568 234.803 79.0693C234.635 78.8818 234.505 78.6612 234.411 78.4048C234.317 78.1484 234.27 77.8726 234.27 77.5721C234.27 77.2715 234.317 76.9958 234.411 76.7476C234.505 76.4995 234.635 76.2871 234.803 76.1107C234.972 75.9342 235.171 75.7991 235.398 75.7026C235.627 75.6061 235.876 75.5592 236.144 75.5592H237.083C237.362 75.5592 237.619 75.6088 237.851 75.7053C238.083 75.8046 238.282 75.9397 238.448 76.1189C238.614 76.2954 238.744 76.5077 238.835 76.7559C238.926 77.0041 238.973 77.2743 238.973 77.5721C238.973 77.8699 238.926 78.1484 238.832 78.4048C238.738 78.6612 238.608 78.8818 238.44 79.0693C238.271 79.2568 238.072 79.403 237.843 79.5105C237.613 79.618 237.359 79.6704 237.083 79.6704H236.144ZM237.083 78.9508C237.26 78.9508 237.423 78.9177 237.572 78.8487C237.721 78.7798 237.848 78.6888 237.956 78.5675C238.064 78.4489 238.147 78.3055 238.207 78.1401C238.268 77.9747 238.299 77.7954 238.299 77.6024C238.299 77.4094 238.268 77.2329 238.207 77.0675C238.147 76.9048 238.064 76.7642 237.956 76.6456C237.848 76.5298 237.718 76.436 237.572 76.3726C237.423 76.3064 237.26 76.2734 237.083 76.2734H236.144C235.969 76.2734 235.809 76.3064 235.663 76.3726C235.516 76.4388 235.389 76.5298 235.284 76.6456C235.179 76.7614 235.094 76.902 235.036 77.0647C234.975 77.2274 234.944 77.4066 234.944 77.6024C234.944 77.7954 234.975 77.9747 235.036 78.1401C235.096 78.3055 235.179 78.4489 235.284 78.5675C235.389 78.6861 235.516 78.7798 235.663 78.8487C235.809 78.9177 235.969 78.9508 236.144 78.9508H237.083Z" fill="white"/>
<path d="M76.2763 17.1641C76.7156 16.8084 77.166 16.4664 77.6163 16.1273C78.0695 15.7881 78.5254 15.4573 78.984 15.1291C79.9041 14.4729 80.838 13.8359 81.783 13.2155C83.6729 11.9747 85.6097 10.7946 87.5853 9.68334C88.5744 9.12636 89.5719 8.58868 90.5804 8.06754C91.5888 7.5464 92.6084 7.04455 93.6362 6.56202C95.6947 5.59694 97.7918 4.70356 99.9331 3.90944C102.074 3.11532 104.252 2.4122 106.473 1.8304C107.584 1.54087 108.703 1.27892 109.83 1.05006L110.253 0.967341L110.466 0.925981C110.538 0.912194 110.607 0.898407 110.678 0.88462L111.529 0.732966L112.383 0.597851L112.596 0.564764L112.811 0.534437L113.24 0.47377C113.383 0.454468 113.524 0.432414 113.668 0.41587L114.099 0.363476L114.53 0.313849C114.674 0.297304 114.817 0.286272 114.961 0.269728L115.392 0.228368L115.608 0.206308L115.823 0.189768C116.113 0.167709 116.401 0.145648 116.691 0.126347L117.561 0.0794732C117.633 0.0739585 117.705 0.0739572 117.779 0.0711998L117.998 0.0656864L118.434 0.0518997L118.652 0.0463796L118.868 0.0436262L119.299 0.0381129L119.73 0.0325928L120.161 0.0353528C120.736 0.0353528 121.308 0.0491369 121.882 0.0601663L122.742 0.0849866C122.885 0.087744 123.029 0.0932546 123.17 0.101527L123.598 0.120834L124.026 0.140134L124.455 0.162194C124.739 0.178738 125.027 0.192524 125.311 0.209068L126.165 0.264215C126.309 0.272487 126.45 0.283512 126.593 0.294542L127.019 0.324875C127.588 0.363478 128.154 0.415865 128.724 0.459983C129.29 0.512373 129.859 0.559253 130.426 0.617158C131.558 0.724695 132.688 0.851528 133.819 0.983881C134.382 1.05282 134.949 1.11899 135.512 1.19068C136.076 1.25962 136.64 1.33682 137.203 1.41127C138.328 1.56293 139.452 1.72286 140.577 1.89106C142.823 2.2247 145.061 2.58866 147.296 2.97745C147.576 3.02433 147.855 3.07396 148.134 3.12359L148.971 3.27249C149.529 3.37451 150.087 3.47378 150.642 3.5758L151.48 3.73021L152.314 3.88738C152.872 3.99216 153.428 4.0997 153.983 4.20724C158.431 5.07029 162.863 6.00779 167.281 7.00595C169.489 7.50504 171.694 8.02066 173.896 8.55283C174.996 8.82029 176.095 9.08776 177.195 9.36349L178.844 9.77985L179.671 9.99217L180.499 10.21L184.851 11.346L181.038 13.7284L180.914 13.8056L180.801 13.8745L180.577 14.0096C180.428 14.0979 180.281 14.1861 180.132 14.2743C179.836 14.4481 179.541 14.619 179.245 14.7872C178.654 15.1236 178.06 15.449 177.46 15.7661C176.863 16.0832 176.264 16.3975 175.661 16.7008C175.059 17.0041 174.454 17.3047 173.843 17.597C172.628 18.1815 171.398 18.7413 170.163 19.2762C168.925 19.8111 167.679 20.324 166.422 20.8148C163.908 21.7937 161.357 22.676 158.774 23.4563C157.481 23.8451 156.182 24.2119 154.873 24.5483C154.544 24.631 154.218 24.7165 153.889 24.7964L152.905 25.0336L151.916 25.2597C151.75 25.2983 151.587 25.3314 151.422 25.3672L150.927 25.4747C149.604 25.756 148.275 26.0069 146.94 26.2302L145.937 26.3929L144.931 26.5418L144.68 26.5777L144.428 26.6108L143.926 26.6769L143.423 26.7431L142.917 26.801C142.246 26.8837 141.572 26.9472 140.897 27.0161L139.883 27.1043C139.715 27.1209 139.546 27.1292 139.378 27.1429L138.869 27.1788C138.701 27.1898 138.532 27.2036 138.361 27.2119L137.853 27.2394C137.513 27.256 137.176 27.278 136.836 27.2891C136.496 27.3001 136.159 27.3139 135.819 27.3249L134.802 27.3442C133.446 27.3608 132.089 27.3442 130.732 27.2891C129.378 27.2312 128.008 27.1264 126.696 27.0133C125.372 26.9003 124.049 26.7817 122.725 26.6604C121.402 26.5363 120.081 26.4095 118.76 26.2799C113.48 25.7587 108.214 25.1962 102.95 24.6861C101.635 24.5593 100.32 24.4352 99.002 24.3166C97.684 24.1981 96.3716 24.0878 95.0564 23.9802C92.426 23.7707 89.7929 23.5915 87.1598 23.4646C86.831 23.4481 86.5022 23.4343 86.1734 23.4205L85.6788 23.3984L85.1842 23.3791C84.5266 23.3516 83.869 23.335 83.2087 23.3157C81.8935 23.2826 80.5755 23.2689 79.2603 23.2744C77.9451 23.2826 76.63 23.3102 75.3175 23.3681C74.0051 23.4233 72.6927 23.5115 71.3858 23.6356C70.0789 23.7624 68.7747 23.9223 67.4789 24.1402C66.1831 24.3552 64.8983 24.6227 63.6273 24.9564C62.3591 25.2927 61.1047 25.6981 59.8862 26.1944C58.6705 26.6962 57.4879 27.2918 56.3661 28.0005C57.416 27.1926 58.5572 26.4922 59.7453 25.8883C60.9389 25.29 62.1767 24.7826 63.4422 24.3497C64.7076 23.9141 65.9979 23.5529 67.2993 23.2468C68.6007 22.9407 69.9159 22.6898 71.2366 22.4802C73.878 22.0611 76.5415 21.8074 79.2078 21.6475C81.8741 21.4876 84.5404 21.4269 87.2067 21.4269L88.2069 21.4297L89.2071 21.438C89.873 21.4462 90.5389 21.4573 91.2048 21.471C91.5364 21.4766 91.8707 21.4848 92.2022 21.4931L93.1997 21.5207L94.1971 21.5538L95.1946 21.5896C97.8526 21.6889 100.508 21.8267 103.16 21.9839C108.462 22.301 113.751 22.7008 119.031 23.0758L122.988 23.3516C124.306 23.4398 125.623 23.528 126.941 23.608C128.27 23.6907 129.544 23.7624 130.84 23.79C132.133 23.8176 133.423 23.8065 134.717 23.7679L135.686 23.7321L136.656 23.6797C136.979 23.6659 137.303 23.6383 137.623 23.6163L138.107 23.5832C138.267 23.5722 138.43 23.5556 138.59 23.5418L139.074 23.5005C139.234 23.4867 139.397 23.4729 139.557 23.4563L140.524 23.3598C141.168 23.2854 141.812 23.2137 142.453 23.1255C143.738 22.9545 145.017 22.7587 146.294 22.5299C147.57 22.301 148.841 22.0446 150.106 21.7606L150.582 21.653C150.739 21.6172 150.899 21.5813 151.057 21.5427L152.005 21.3166L152.95 21.0795C153.265 20.9995 153.577 20.9141 153.892 20.8313C155.146 20.4949 156.395 20.1365 157.636 19.7532C160.12 18.9867 162.573 18.1236 164.993 17.1751C166.204 16.7008 167.406 16.2045 168.599 15.6861C168.898 15.5565 169.196 15.4269 169.492 15.2946C169.787 15.1622 170.086 15.0299 170.381 14.8948C170.973 14.6273 171.561 14.3488 172.147 14.0703C173.318 13.5078 174.479 12.926 175.623 12.3194C176.195 12.0161 176.761 11.7072 177.322 11.3929C177.601 11.2357 177.88 11.0758 178.156 10.9159C178.295 10.8359 178.43 10.756 178.565 10.6732L178.767 10.5519L178.952 10.4389L179.491 13.9572L178.684 13.7422L177.872 13.5299L176.242 13.108C175.153 12.8295 174.064 12.5538 172.973 12.2808C170.793 11.7348 168.607 11.2054 166.422 10.6843C162.048 9.64474 157.663 8.65209 153.267 7.72011C151.068 7.25687 148.869 6.80466 146.667 6.37452L145.84 6.21459L145.014 6.05742C144.464 5.94988 143.912 5.85062 143.359 5.74584C142.257 5.5418 141.152 5.34051 140.046 5.15025C135.628 4.38095 131.196 3.70264 126.759 3.22561L126.342 3.1815C126.204 3.16771 126.066 3.15117 125.925 3.14014L125.093 3.06017C124.817 3.0326 124.538 3.01054 124.261 2.98573L123.844 2.94988L123.427 2.91679L123.01 2.8837C122.872 2.87268 122.733 2.86164 122.592 2.85337L121.761 2.79822C121.208 2.76789 120.653 2.7348 120.1 2.7155L119.686 2.69896L119.271 2.68793L118.857 2.6769L118.65 2.67139L118.445 2.66863L118.034 2.66587L117.829 2.66312C117.76 2.66312 117.691 2.66036 117.625 2.66312L116.804 2.67414C116.53 2.68241 116.257 2.69344 115.981 2.70172L115.776 2.70999L115.572 2.72102L115.16 2.74308C115.022 2.75135 114.886 2.75687 114.748 2.7679L114.337 2.79822L113.925 2.82856C113.787 2.83959 113.651 2.85337 113.513 2.86716L113.102 2.90576L112.897 2.92507L112.693 2.94713L111.872 3.04363L111.051 3.15393C110.982 3.1622 110.913 3.17322 110.847 3.18425L110.643 3.21459L110.234 3.27801C109.142 3.44896 108.051 3.65301 106.968 3.88463C105.882 4.11349 104.802 4.37543 103.727 4.6622C102.652 4.94897 101.583 5.25779 100.516 5.59143C99.4524 5.92507 98.3941 6.28353 97.3414 6.66128C96.2887 7.03904 95.2443 7.4361 94.2054 7.85522C93.1665 8.27158 92.1332 8.70724 91.1081 9.15945C90.083 9.61165 89.0635 10.0832 88.0522 10.5685C86.0269 11.5418 84.0293 12.5758 82.0648 13.6705C81.573 13.9462 81.0839 14.222 80.5949 14.5032C80.1086 14.7845 79.6223 15.0685 79.1388 15.358C78.6552 15.6475 78.1745 15.9398 77.6965 16.2403C77.2212 16.5464 76.746 16.8497 76.2763 17.1641Z" fill="white"/>
<path d="M17.137 48.5704C16.7972 48.4049 16.4739 48.2036 16.1589 47.9886C15.8439 47.7735 15.54 47.5419 15.2444 47.2965C14.6558 46.8056 14.106 46.2542 13.6059 45.6531C13.3545 45.3525 13.1196 45.0382 12.8958 44.7128C12.7825 44.5501 12.6775 44.3847 12.5725 44.2137C12.4676 44.0455 12.3653 43.8746 12.2714 43.6981C12.1747 43.5244 12.0835 43.3452 11.9951 43.1659C11.9067 42.9867 11.8238 42.802 11.7436 42.6172C11.6635 42.4325 11.5889 42.245 11.5171 42.0547C11.4452 41.8645 11.3817 41.6714 11.3209 41.4784C11.075 40.7036 10.9092 39.8957 10.8236 39.0768C10.7794 38.6659 10.76 38.2551 10.7545 37.8415C10.749 37.4279 10.7683 37.017 10.8015 36.6062C10.8705 35.7845 11.0142 34.9711 11.2187 34.1797C11.4204 33.3856 11.6856 32.6135 11.9951 31.8663C12.3045 31.119 12.661 30.3939 13.0478 29.6962C13.1445 29.5225 13.244 29.3488 13.3462 29.1751L13.5009 28.9187L13.6584 28.665C13.7109 28.5795 13.7634 28.4968 13.8187 28.4141L13.8988 28.29C13.9043 28.279 13.9126 28.2679 13.9209 28.2569L13.943 28.2238L13.99 28.1549C14.1143 27.9729 14.2442 27.7964 14.3768 27.6227C14.91 26.9306 15.5013 26.313 16.123 25.756C16.7447 25.1962 17.3967 24.6944 18.0626 24.2367C18.3969 24.0078 18.734 23.7872 19.0739 23.5777C19.4137 23.3681 19.7591 23.1668 20.1045 22.9738C20.798 22.5878 21.4998 22.2348 22.2071 21.9067C23.6245 21.2505 25.0641 20.688 26.5174 20.1916C27.9707 19.6953 29.4324 19.2652 30.9023 18.8846C32.3722 18.5041 33.8504 18.1705 35.3314 17.8782C36.8124 17.5859 38.2961 17.3295 39.7853 17.1089C41.2718 16.8883 42.7611 16.7008 44.2531 16.5436C44.6261 16.505 44.9991 16.4664 45.3721 16.4333C45.7451 16.3975 46.1181 16.3644 46.4911 16.3313C46.8641 16.301 47.2372 16.2707 47.6102 16.2431C47.9832 16.2155 48.3562 16.1907 48.7292 16.1659C50.224 16.0694 51.716 16.0004 53.2108 15.9591C54.7056 15.9205 56.2003 15.9095 57.6951 15.9343C58.4411 15.9453 59.1899 15.9674 59.9359 15.9977C60.6819 16.0308 61.4307 16.0694 62.1767 16.1356L59.9718 16.5326L57.7725 16.9242C56.3081 17.1861 54.8492 17.4481 53.3904 17.7128C50.4754 18.2449 47.5742 18.7964 44.6897 19.392C41.8079 19.9876 38.9426 20.6273 36.1161 21.3497C34.7014 21.7109 33.2978 22.0942 31.9108 22.5078C30.521 22.9214 29.1478 23.3626 27.7994 23.8479C26.4511 24.3332 25.1276 24.8598 23.8539 25.4499C23.2156 25.7449 22.5912 26.0538 21.9861 26.3847C21.3782 26.7128 20.7897 27.063 20.2288 27.4325C19.947 27.6172 19.6735 27.8102 19.4082 28.006C19.143 28.2017 18.886 28.4058 18.6401 28.6154C18.1483 29.0345 17.6951 29.4784 17.3056 29.9472C17.2089 30.063 17.1149 30.1815 17.0237 30.3029L16.9547 30.3939L16.8801 30.4986C16.8303 30.5676 16.7778 30.6365 16.7281 30.7082C16.5292 30.9867 16.3358 31.2707 16.1479 31.5575C15.7749 32.1282 15.4267 32.7128 15.1145 33.3084C14.4901 34.5023 14.0038 35.7459 13.7164 37.0363C13.4291 38.324 13.3462 39.6558 13.512 40.9931C13.675 42.3305 14.0839 43.6678 14.7001 44.9499C15.0095 45.5896 15.3687 46.2183 15.7749 46.8249C15.9766 47.1283 16.1921 47.426 16.4159 47.7211C16.5292 47.8672 16.6452 48.0134 16.764 48.1568C16.8856 48.2919 17.0072 48.4325 17.137 48.5704Z" fill="white"/>
<path d="M46.5713 64.2706C45.0792 64.2706 43.7033 63.9756 42.4378 63.3827C41.1724 62.7899 40.0727 61.9792 39.1416 60.9508C38.2104 59.9223 37.4838 58.7007 36.9643 57.2862C36.4449 55.8717 36.1851 54.3441 36.1851 52.7007C36.1851 51.038 36.4449 49.5187 36.9643 48.1483C37.4838 46.7779 38.2104 45.6061 39.1416 44.6382C40.0727 43.6704 41.1724 42.9231 42.4378 42.3937C43.7033 41.8643 45.082 41.5996 46.5713 41.5996H58.1648V45.5592H46.5713C45.6097 45.5592 44.7228 45.7412 43.9077 46.1051C43.0926 46.4691 42.3936 46.9737 41.8051 47.6162C41.2166 48.2614 40.7552 49.0307 40.4208 49.9241C40.0865 50.8175 39.9207 51.8046 39.9207 52.8855C39.9207 53.9471 40.0865 54.9342 40.4208 55.8469C40.7552 56.7623 41.2166 57.5454 41.8051 58.2017C42.3936 58.8579 43.0954 59.3708 43.9077 59.7458C44.7228 60.1208 45.6097 60.3083 46.5713 60.3083H58.1648V64.2678H46.5713V64.2706Z" fill="white"/>
<path d="M87.7289 64.2707L84.5211 58.5629H74.3974L76.163 55.3506H82.7251L77.959 46.869L68.247 64.2707H63.9809L76.2818 42.5647C76.4973 42.1704 76.7515 41.8589 77.0472 41.63C77.3428 41.4011 77.6937 41.2881 78.1054 41.2881C78.5171 41.2881 78.8652 41.4039 79.1498 41.63C79.4344 41.8589 79.6858 42.1704 79.9013 42.5647L92.2298 64.2707H87.7289Z" fill="white"/>
<path d="M118.617 64.2707L113.201 57.9701H105.197V54.4793H114.113C115.467 54.4793 116.486 54.0905 117.174 53.3102C117.859 52.5298 118.205 51.4021 118.205 49.9269C118.205 48.4517 117.846 47.3543 117.13 46.6374C116.414 45.9204 115.409 45.562 114.113 45.562H102.458V64.2734H98.7561V41.6024H114.116C115.331 41.6024 116.42 41.7954 117.381 42.1787C118.343 42.5647 119.158 43.1134 119.824 43.8331C120.49 44.5528 121.001 45.4186 121.355 46.4361C121.708 47.4535 121.885 48.5978 121.885 49.8662C121.885 51.7578 121.498 53.3433 120.722 54.6227C119.946 55.9021 118.862 56.8203 117.47 57.3828L123.913 64.2762H118.617V64.2707Z" fill="white"/>
<path d="M131.528 64.2707C130.959 64.2707 130.464 64.0997 130.042 63.7551C129.619 63.4104 129.409 62.9085 129.409 62.2413C129.409 61.6595 129.663 61.097 130.174 60.5565L144.387 45.369H129.674V41.5969H148.388C148.938 41.5969 149.427 41.7679 149.858 42.1126C150.289 42.4572 150.504 42.9591 150.504 43.6236C150.504 44.2054 150.25 44.7679 149.739 45.3083L135.526 60.4959H150.416V64.2679H131.528V64.2707Z" fill="white"/>
<path d="M167.685 64.2706C166.193 64.2706 164.817 63.9756 163.551 63.3827C162.286 62.7899 161.186 61.9792 160.255 60.9508C159.324 59.9223 158.597 58.7007 158.078 57.2862C157.558 55.8717 157.299 54.3441 157.299 52.7007C157.299 51.038 157.558 49.5187 158.078 48.1483C158.597 46.7779 159.324 45.6061 160.255 44.6382C161.186 43.6704 162.286 42.9231 163.551 42.3937C164.817 41.8643 166.195 41.5996 167.685 41.5996H172.893C174.443 41.5996 175.86 41.8698 177.145 42.4103C178.43 42.9507 179.532 43.709 180.455 44.6878C181.378 45.6667 182.094 46.8358 182.605 48.1952C183.116 49.5573 183.37 51.0601 183.37 52.7007C183.37 54.3414 183.11 55.8717 182.591 57.2862C182.072 58.7007 181.345 59.9223 180.414 60.9508C179.483 61.9792 178.377 62.7899 177.104 63.3827C175.827 63.9756 174.426 64.2706 172.896 64.2706H167.685ZM172.893 60.311C173.874 60.311 174.777 60.1235 175.601 59.7485C176.424 59.3735 177.137 58.8607 177.734 58.2044C178.331 57.5482 178.797 56.7651 179.132 55.8496C179.466 54.9342 179.632 53.9471 179.632 52.8882C179.632 51.8294 179.466 50.845 179.132 49.9406C178.797 49.0362 178.333 48.2614 177.734 47.6162C177.134 46.9709 176.424 46.4663 175.601 46.1051C174.777 45.7439 173.874 45.5592 172.893 45.5592H167.685C166.723 45.5592 165.836 45.7412 165.021 46.1051C164.206 46.4691 163.507 46.9737 162.918 47.6162C162.33 48.2614 161.869 49.0307 161.534 49.9241C161.2 50.8175 161.034 51.8046 161.034 52.8855C161.034 53.9471 161.2 54.9342 161.534 55.8469C161.869 56.7623 162.33 57.5454 162.918 58.2017C163.507 58.8579 164.209 59.3708 165.021 59.7458C165.836 60.1208 166.723 60.3083 167.685 60.3083H172.893V60.311Z" fill="white"/>
<path d="M194.099 47.6796V64.2707H190.537V43.687C190.537 42.9591 190.709 42.3828 191.051 41.9554C191.394 41.528 191.861 41.3157 192.449 41.3157C192.723 41.3157 192.988 41.3791 193.245 41.5032C193.499 41.6272 193.765 41.8368 194.041 42.1263L209.135 58.0004V41.4094H212.697V62.1778C212.697 62.9278 212.525 63.5096 212.183 63.9232C211.84 64.3396 211.393 64.5464 210.843 64.5464C210.235 64.5464 209.666 64.2652 209.135 63.7054L194.099 47.6796Z" fill="white"/>
<path d="M220.544 64.2706V41.5996H239.641V45.5592H224.252V60.311H239.672V64.2706H220.544ZM226.99 54.4158V51.0794H238.848V54.4158H226.99Z" fill="white"/>
</svg>
