<svg width="24" height="24" viewBox="0 0 24 24" fill="none" xmlns="http://www.w3.org/2000/svg">
<path d="M21.2702 0.670776H3.66484C2.14819 0.670776 0.853638 2.09558 0.853638 3.60777V21.2266C0.853638 22.7382 2.14819 23.8171 3.66484 23.8171H21.2702C22.7868 23.8171 24 22.7382 24 21.2266V3.60777C24 2.09558 22.7868 0.670776 21.2702 0.670776ZM20.7257 3.9773C21.1645 3.9773 21.5202 4.33311 21.5202 4.77196V7.31637C21.5202 7.75522 21.1645 8.11103 20.7257 8.11103H18.1812C17.7424 8.11103 17.3866 7.75522 17.3866 7.31637V4.77196C17.3866 4.33311 17.7424 3.9773 18.1812 3.9773H20.7257ZM12.4943 8.01311C14.9473 8.01311 16.9357 9.99744 16.9357 12.4441C16.9357 14.8911 14.9473 16.8754 12.4943 16.8754C10.0417 16.8754 8.05282 14.8911 8.05282 12.4441C8.05282 9.99744 10.0416 8.01311 12.4943 8.01311ZM21.5202 20.6356C21.5202 20.9911 21.1425 21.3374 20.7858 21.3374H4.20336C3.84689 21.3374 3.33344 20.9911 3.33344 20.6356V10.5907H5.71845C5.55608 11.4176 5.46846 11.8032 5.46846 12.4441C5.46846 16.3093 8.62005 19.453 12.4942 19.453C16.3688 19.453 19.5204 16.3085 19.5204 12.4433C19.5204 11.8032 19.4328 11.4176 19.2712 10.5907H21.5202V20.6356Z" fill="white"/>
</svg>
